<svg width="13" height="14" viewBox="0 0 10 11" fill="none" xmlns="http://www.w3.org/2000/svg">
<path d="M3.33499 0.931881L3.19999 1.20001H1.39999C1.06811 1.20001 0.799988 1.46813 0.799988 1.80001C0.799988 2.13188 1.06811 2.40001 1.39999 2.40001H8.59999C8.93186 2.40001 9.19999 2.13188 9.19999 1.80001C9.19999 1.46813 8.93186 1.20001 8.59999 1.20001H6.79999L6.66499 0.931881C6.56374 0.727506 6.35561 0.600006 6.12874 0.600006H3.87124C3.64436 0.600006 3.43624 0.727506 3.33499 0.931881V0.931881ZM8.59999 3.00001H1.39999L1.79749 9.35626C1.82749 9.83063 2.22124 10.2 2.69561 10.2H7.30436C7.77874 10.2 8.17249 9.83063 8.20249 9.35626L8.59999 3.00001Z" fill="#FF2E2E"/>
</svg>
